<?xml version="1.0" encoding="utf-8"?>
<!-- Generator: Adobe Illustrator 27.0.0, SVG Export Plug-In . SVG Version: 6.00 Build 0)  -->
<svg version="1.1" id="Layer_1" xmlns="http://www.w3.org/2000/svg" xmlns:xlink="http://www.w3.org/1999/xlink" x="0px" y="0px"
	 viewBox="0 0 57 57" style="enable-background:new 0 0 57 57;" xml:space="preserve">
<style type="text/css">
	.st0{fill-rule:evenodd;clip-rule:evenodd;fill:#EE3425;}
	.st1{fill-rule:evenodd;clip-rule:evenodd;fill:#EE3724;}
</style>
<g>
	<path class="st0" d="M0.8,28.4C0.9,13.1,13.1,1,28.6,1.1C43.9,1.2,56,13.5,55.9,28.9c-0.1,15.3-12.3,27.4-27.8,27.3
		C12.8,56.1,0.7,43.9,0.8,28.4z M28.3,3.3C14.7,3.3,3.2,14.7,3,28.4C2.8,42.2,14.5,54,28.3,54C42,54,53.5,42.6,53.7,28.9
		C53.9,15.2,42.1,3.3,28.3,3.3z"/>
	<path class="st1" d="M12.8,22.1c4.2,4.2,8.5,8.2,12.5,12.6c2.2,2.4,3.7,2.5,5.9,0c4-4.4,8.3-8.4,12.6-12.7c1.7,2.2,0.3,3-0.6,3.9
		c-4.1,4.2-8.2,8.3-12.3,12.4c-1.4,1.4-2.7,2.7-4.6,0.7c-4.8-4.9-9.6-9.7-14.3-14.6c-0.3-0.3-0.1-0.9-0.2-1.4
		C12.2,22.7,12.5,22.4,12.8,22.1z"/>
</g>
</svg>
